<svg xmlns="http://www.w3.org/2000/svg" viewBox="0 0 900 500" role="img" aria-labelledby="title desc">
  <title id="title">Community benchmark comparison</title><desc id="desc">Selected public leaderboard scores range from 0.800 to 0.809 while this project's cross-validation score is 0.8171.</desc>
  <rect width="900" height="500" rx="16" fill="#111"/><text x="48" y="54" fill="#fafafa" font-family="system-ui,sans-serif" font-size="25" font-weight="700">A strong result in the public range</text><text x="48" y="84" fill="#a3a3a3" font-family="system-ui,sans-serif" font-size="15">Selected published results · CV and leaderboard scores are shown separately</text>
  <g font-family="system-ui,sans-serif"><line x1="315" y1="115" x2="315" y2="432" stroke="#333"/><line x1="532" y1="115" x2="532" y2="432" stroke="#333"/><line x1="748" y1="115" x2="748" y2="432" stroke="#333"/><text x="299" y="454" fill="#737373" font-size="13">0.79</text><text x="516" y="454" fill="#737373" font-size="13">0.81</text><text x="732" y="454" fill="#737373" font-size="13">0.83</text>
  <text x="48" y="145" fill="#d4d4d4" font-size="15">AmirFARES</text><rect x="315" y="125" width="108" height="27" rx="4" fill="#737373"/><text x="435" y="145" fill="#fafafa" font-size="14">0.800</text>
  <text x="48" y="202" fill="#d4d4d4" font-size="15">You-sha</text><rect x="315" y="182" width="162" height="27" rx="4" fill="#737373"/><text x="489" y="202" fill="#fafafa" font-size="14">0.805</text>
  <text x="48" y="259" fill="#d4d4d4" font-size="15">Top 10% notebook</text><rect x="315" y="239" width="175" height="27" rx="4" fill="#737373"/><text x="502" y="259" fill="#fafafa" font-size="14">0.8062</text>
  <text x="48" y="316" fill="#d4d4d4" font-size="15">Top 7% write-up</text><rect x="315" y="296" width="180" height="27" rx="4" fill="#737373"/><text x="507" y="316" fill="#fafafa" font-size="14">0.8066</text>
  <text x="48" y="373" fill="#d4d4d4" font-size="15">80.89% notebook</text><rect x="315" y="353" width="204" height="27" rx="4" fill="#737373"/><text x="531" y="373" fill="#fafafa" font-size="14">0.8089</text>
  <text x="48" y="420" fill="#93c5fd" font-size="15" font-weight="700">This project (CV)</text><rect x="315" y="400" width="293" height="27" rx="4" fill="#3b82f6"/><text x="620" y="420" fill="#fafafa" font-size="14" font-weight="700">0.8171 CV</text></g>
  <rect x="656" y="126" width="194" height="77" rx="7" fill="#171717" stroke="#333"/><text x="672" y="151" fill="#a3a3a3" font-family="system-ui,sans-serif" font-size="12">Important</text><text x="672" y="175" fill="#e5e5e5" font-family="system-ui,sans-serif" font-size="13">CV ≠ leaderboard score</text><text x="672" y="193" fill="#a3a3a3" font-family="system-ui,sans-serif" font-size="11">Compare the broad range only.</text>
</svg>
